<svg width="13" height="14" viewBox="0 0 13 14" fill="none" xmlns="http://www.w3.org/2000/svg">
<g id="Aplication">
<path id="Vector" d="M7.87402 0.5H4.87402C4.32174 0.5 3.87402 0.947715 3.87402 1.5V2C3.87402 2.55228 4.32174 3 4.87402 3H7.87402C8.4263 3 8.87402 2.55228 8.87402 2V1.5C8.87402 0.947715 8.4263 0.5 7.87402 0.5Z" stroke="#94A3B8" stroke-linecap="round" stroke-linejoin="round"/>
<path id="Vector_2" d="M9.12402 1.5H10.624C10.8892 1.5 11.1436 1.60536 11.3311 1.79289C11.5186 1.98043 11.624 2.23478 11.624 2.5V12.5C11.624 12.7652 11.5186 13.0196 11.3311 13.2071C11.1436 13.3946 10.8892 13.5 10.624 13.5H2.12402C1.8588 13.5 1.60445 13.3946 1.41691 13.2071C1.22938 13.0196 1.12402 12.7652 1.12402 12.5V2.5C1.12402 2.23478 1.22938 1.98043 1.41691 1.79289C1.60445 1.60536 1.8588 1.5 2.12402 1.5H3.62402" stroke="#94A3B8" stroke-linecap="round" stroke-linejoin="round"/>
<path id="Vector_3" d="M4.37402 9L5.87402 10L8.87402 6" stroke="#94A3B8" stroke-linecap="round" stroke-linejoin="round"/>
</g>
</svg>
