<svg width="21" height="21" viewBox="0 0 21 21" fill="none" xmlns="http://www.w3.org/2000/svg">
<path d="M7.29069 6.30269V4.63603C7.29069 4.194 7.46629 3.77008 7.77885 3.45752C8.09141 3.14496 8.51533 2.96936 8.95736 2.96936H12.2907C12.7327 2.96936 13.1566 3.14496 13.4692 3.45752C13.7818 3.77008 13.9574 4.194 13.9574 4.63603V6.30269M10.624 10.4694V10.4777M3.12402 11.3027C5.45034 12.4749 8.01905 13.0856 10.624 13.0856C13.229 13.0856 15.7977 12.4749 18.124 11.3027M3.12402 7.96936C3.12402 7.52733 3.29962 7.10341 3.61218 6.79085C3.92474 6.47829 4.34866 6.30269 4.79069 6.30269H16.4574C16.8994 6.30269 17.3233 6.47829 17.6359 6.79085C17.9484 7.10341 18.124 7.52733 18.124 7.96936V15.4694C18.124 15.9114 17.9484 16.3353 17.6359 16.6479C17.3233 16.9604 16.8994 17.136 16.4574 17.136H4.79069C4.34866 17.136 3.92474 16.9604 3.61218 16.6479C3.29962 16.3353 3.12402 15.9114 3.12402 15.4694V7.96936Z" stroke="#94A3B8" stroke-width="2" stroke-linecap="round" stroke-linejoin="round"/>
</svg>
