<svg width="20" height="20" viewBox="0 0 20 20" fill="none" xmlns="http://www.w3.org/2000/svg">
<g id="bell">
<path id="Vector" d="M7.50016 14.1667V15C7.50016 15.663 7.76355 16.2989 8.2324 16.7678C8.70124 17.2366 9.33712 17.5 10.0002 17.5C10.6632 17.5 11.2991 17.2366 11.7679 16.7678C12.2368 16.2989 12.5002 15.663 12.5002 15V14.1667M8.3335 4.16667C8.3335 3.72464 8.50909 3.30072 8.82165 2.98816C9.13421 2.67559 9.55814 2.5 10.0002 2.5C10.4422 2.5 10.8661 2.67559 11.1787 2.98816C11.4912 3.30072 11.6668 3.72464 11.6668 4.16667C12.6238 4.61919 13.4397 5.32361 14.0269 6.20442C14.6141 7.08523 14.9505 8.10923 15.0002 9.16667V11.6667C15.0629 12.1848 15.2464 12.6809 15.5358 13.1151C15.8253 13.5493 16.2127 13.9095 16.6668 14.1667H3.3335C3.78761 13.9095 4.175 13.5493 4.46449 13.1151C4.75397 12.6809 4.93745 12.1848 5.00016 11.6667V9.16667C5.0498 8.10923 5.38625 7.08523 5.97345 6.20442C6.56066 5.32361 7.37649 4.61919 8.3335 4.16667Z" stroke="#94A3B8" stroke-width="2" stroke-linecap="round" stroke-linejoin="round"/>
</g>
</svg>
