<svg width="20" height="21" viewBox="0 0 20 21" fill="none" xmlns="http://www.w3.org/2000/svg">
<g id="circle-check-filled">
<path id="Vector" d="M14.167 3.28333C15.4239 4.00904 16.4694 5.05043 17.2002 6.30441C17.9309 7.55839 18.3215 8.98147 18.3332 10.4328C18.3449 11.8841 17.9774 13.3133 17.267 14.5789C16.5566 15.8445 15.528 16.9027 14.283 17.6486C13.038 18.3945 11.6198 18.8023 10.1687 18.8317C8.71768 18.8611 7.28412 18.511 6.00995 17.816C4.73579 17.1211 3.66522 16.1054 2.90421 14.8696C2.14321 13.6337 1.71817 12.2206 1.67116 10.77L1.66699 10.5L1.67116 10.23C1.71783 8.79082 2.13662 7.38829 2.88669 6.15915C3.63677 4.93001 4.69254 3.9162 5.95107 3.21656C7.2096 2.51692 8.62795 2.15532 10.0678 2.16702C11.5077 2.17872 12.92 2.56332 14.167 3.28333ZM13.0895 8.24416C12.946 8.10068 12.7551 8.01449 12.5526 8.00175C12.35 7.98902 12.1498 8.05062 11.9895 8.17499L11.9112 8.24416L9.16699 10.9875L8.08949 9.91083L8.01116 9.84166C7.85081 9.71737 7.65064 9.65585 7.44816 9.66862C7.24569 9.68139 7.05483 9.76759 6.91138 9.91104C6.76792 10.0545 6.68173 10.2454 6.66895 10.4478C6.65618 10.6503 6.71771 10.8505 6.84199 11.0108L6.91116 11.0892L8.57783 12.7558L8.65616 12.825C8.8023 12.9384 8.98202 12.9999 9.16699 12.9999C9.35197 12.9999 9.53168 12.9384 9.67783 12.825L9.75616 12.7558L13.0895 9.42249L13.1587 9.34416C13.283 9.18382 13.3446 8.98361 13.3319 8.78109C13.3192 8.57857 13.233 8.38765 13.0895 8.24416Z" fill="#22C55E"/>
</g>
</svg>
