<svg width="18" height="18" viewBox="0 0 18 18" fill="none" xmlns="http://www.w3.org/2000/svg">
<path d="M7.22819 2.37973C7.58319 0.916393 9.66486 0.916393 10.0199 2.37973C10.0731 2.59956 10.1775 2.80371 10.3246 2.97556C10.4717 3.14741 10.6573 3.28211 10.8662 3.36868C11.0752 3.45526 11.3017 3.49127 11.5272 3.47378C11.7527 3.4563 11.9709 3.38581 12.164 3.26806C13.4499 2.48473 14.9224 3.95639 14.139 5.24306C14.0214 5.43611 13.9511 5.65417 13.9336 5.87954C13.9162 6.1049 13.9522 6.3312 14.0386 6.54004C14.1251 6.74888 14.2596 6.93437 14.4313 7.08144C14.603 7.2285 14.8069 7.33298 15.0265 7.38639C16.4899 7.74139 16.4899 9.82306 15.0265 10.1781C14.8067 10.2313 14.6025 10.3357 14.4307 10.4828C14.2588 10.6299 14.1241 10.8155 14.0376 11.0244C13.951 11.2334 13.915 11.4599 13.9325 11.6854C13.95 11.9109 14.0204 12.1291 14.1382 12.3222C14.9215 13.6081 13.4499 15.0806 12.1632 14.2972C11.9701 14.1796 11.7521 14.1093 11.5267 14.0918C11.3013 14.0744 11.075 14.1104 10.8662 14.1968C10.6574 14.2833 10.4719 14.4178 10.3248 14.5895C10.1778 14.7612 10.0733 14.9651 10.0199 15.1847C9.66486 16.6481 7.58319 16.6481 7.22819 15.1847C7.17493 14.9649 7.07051 14.7607 6.92343 14.5889C6.77636 14.417 6.59078 14.2823 6.38181 14.1958C6.17284 14.1092 5.94639 14.0732 5.72087 14.0907C5.49535 14.1082 5.27715 14.1786 5.08402 14.2964C3.79819 15.0797 2.32569 13.6081 3.10902 12.3214C3.22661 12.1283 3.29698 11.9103 3.31443 11.6849C3.33187 11.4596 3.29589 11.2333 3.20942 11.0244C3.12294 10.8156 2.98841 10.6301 2.81675 10.483C2.64509 10.336 2.44116 10.2315 2.22152 10.1781C0.75819 9.82306 0.75819 7.74139 2.22152 7.38639C2.44136 7.33313 2.64551 7.22871 2.81736 7.08163C2.98921 6.93456 3.1239 6.74899 3.21048 6.54002C3.29705 6.33105 3.33307 6.10459 3.31558 5.87907C3.2981 5.65355 3.22761 5.43535 3.10986 5.24223C2.32652 3.95639 3.79819 2.48389 5.08486 3.26723C5.91819 3.77389 6.99819 3.32556 7.22819 2.37973Z" stroke="#3B82F6" stroke-width="2" stroke-linecap="round" stroke-linejoin="round"/>
<path d="M6.12402 8.78223C6.12402 9.44527 6.38742 10.0812 6.85626 10.55C7.3251 11.0188 7.96098 11.2822 8.62402 11.2822C9.28706 11.2822 9.92295 11.0188 10.3918 10.55C10.8606 10.0812 11.124 9.44527 11.124 8.78223C11.124 8.11919 10.8606 7.4833 10.3918 7.01446C9.92295 6.54562 9.28706 6.28223 8.62402 6.28223C7.96098 6.28223 7.3251 6.54562 6.85626 7.01446C6.38742 7.4833 6.12402 8.11919 6.12402 8.78223Z" stroke="#3B82F6" stroke-width="2" stroke-linecap="round" stroke-linejoin="round"/>
</svg>
