<svg width="12" height="12" viewBox="0 0 12 12" fill="none" xmlns="http://www.w3.org/2000/svg">
<g id="cog--work-loading-cog-gear-settings-machine">
<path id="Vector" d="M4.64109 2.02036L5.00135 1.0904C5.06211 0.932942 5.169 0.797508 5.30803 0.701831C5.44706 0.606155 5.61174 0.554698 5.78051 0.554199H6.46752C6.63628 0.554698 6.80097 0.606155 6.94 0.701831C7.07903 0.797508 7.18592 0.932942 7.24668 1.0904L7.60694 2.02036L8.8301 2.72412L9.81872 2.57332C9.98335 2.55097 10.1509 2.57807 10.3001 2.65117C10.4493 2.72427 10.5733 2.84006 10.6565 2.98385L10.9917 3.57031C11.0775 3.71638 11.1172 3.88506 11.1052 4.05408C11.0932 4.2231 11.0303 4.38452 10.9246 4.51704L10.313 5.2962V6.70372L10.9414 7.48288C11.047 7.6154 11.1099 7.77682 11.1219 7.94584C11.1339 8.11486 11.0943 8.28353 11.0084 8.4296L10.6733 9.01607C10.5901 9.15984 10.466 9.27562 10.3169 9.34876C10.1677 9.42182 10.0001 9.44897 9.83547 9.4266L8.84686 9.27579L7.62369 9.97955L7.26343 10.9095C7.20268 11.0669 7.09579 11.2024 6.95675 11.2981C6.81773 11.3938 6.65304 11.4452 6.48427 11.4457H5.78051C5.61174 11.4452 5.44706 11.3938 5.30803 11.2981C5.169 11.2024 5.06211 11.0669 5.00135 10.9095L4.64109 9.97955L3.41789 9.27579L2.42928 9.4266C2.26466 9.44897 2.09712 9.42182 1.94794 9.34876C1.79877 9.27562 1.67469 9.15984 1.59147 9.01607L1.25634 8.4296C1.17047 8.28353 1.13091 8.11486 1.14287 7.94584C1.15484 7.77682 1.21777 7.6154 1.32337 7.48288L1.93497 6.70372V5.2962L1.30661 4.51704C1.20102 4.38452 1.13808 4.2231 1.12612 4.05408C1.11415 3.88506 1.15371 3.71638 1.23959 3.57031L1.57471 2.98385C1.65793 2.84006 1.78201 2.72427 1.93118 2.65117C2.08036 2.57807 2.24791 2.55097 2.41252 2.57332L3.40114 2.72412L4.64109 2.02036ZM4.4484 5.99996C4.4484 6.33136 4.54667 6.65532 4.73079 6.93088C4.91491 7.20644 5.1766 7.4212 5.48278 7.54803C5.78897 7.67485 6.12587 7.70803 6.45091 7.64338C6.77595 7.57872 7.07452 7.41914 7.30886 7.1848C7.54319 6.95046 7.70278 6.65189 7.76743 6.32685C7.83209 6.00182 7.79891 5.66491 7.67208 5.35872C7.54526 5.05255 7.33049 4.79085 7.05494 4.60673C6.77938 4.42261 6.45542 4.32434 6.12401 4.32434C5.67961 4.32434 5.25341 4.50087 4.93918 4.81512C4.62494 5.12936 4.4484 5.55556 4.4484 5.99996Z" stroke="#94A3B8" stroke-linecap="round" stroke-linejoin="round"/>
</g>
</svg>
