<svg width="21" height="21" viewBox="0 0 21 21" fill="none" xmlns="http://www.w3.org/2000/svg">
<path d="M9.22819 3.69247C9.58319 2.22914 11.6649 2.22914 12.0199 3.69247C12.0731 3.9123 12.1775 4.11645 12.3246 4.2883C12.4717 4.46015 12.6573 4.59485 12.8662 4.68143C13.0752 4.768 13.3017 4.80401 13.5272 4.78653C13.7527 4.76904 13.9709 4.69856 14.164 4.5808C15.4499 3.79747 16.9224 5.26914 16.139 6.5558C16.0214 6.74885 15.9511 6.96692 15.9336 7.19228C15.9162 7.41765 15.9522 7.64395 16.0386 7.85279C16.1251 8.06163 16.2596 8.24712 16.4313 8.39418C16.603 8.54124 16.8069 8.64573 17.0265 8.69914C18.4899 9.05414 18.4899 11.1358 17.0265 11.4908C16.8067 11.5441 16.6025 11.6485 16.4307 11.7956C16.2588 11.9426 16.1241 12.1282 16.0376 12.3372C15.951 12.5461 15.915 12.7726 15.9325 12.9981C15.95 13.2236 16.0204 13.4418 16.1382 13.635C16.9215 14.9208 15.4499 16.3933 14.1632 15.61C13.9701 15.4924 13.7521 15.422 13.5267 15.4046C13.3013 15.3871 13.075 15.4231 12.8662 15.5096C12.6574 15.5961 12.4719 15.7306 12.3248 15.9022C12.1778 16.0739 12.0733 16.2778 12.0199 16.4975C11.6649 17.9608 9.58319 17.9608 9.22819 16.4975C9.17493 16.2776 9.07051 16.0735 8.92343 15.9016C8.77636 15.7298 8.59078 15.5951 8.38181 15.5085C8.17284 15.4219 7.94639 15.3859 7.72087 15.4034C7.49535 15.4209 7.27715 15.4914 7.08402 15.6091C5.79819 16.3925 4.32569 14.9208 5.10902 13.6341C5.22661 13.4411 5.29698 13.223 5.31443 12.9977C5.33187 12.7723 5.29589 12.546 5.20942 12.3372C5.12294 12.1283 4.98841 11.9428 4.81675 11.7958C4.64509 11.6487 4.44116 11.5442 4.22152 11.4908C2.75819 11.1358 2.75819 9.05414 4.22152 8.69914C4.44136 8.64587 4.64551 8.54145 4.81736 8.39438C4.98921 8.2473 5.1239 8.06173 5.21048 7.85276C5.29705 7.64379 5.33307 7.41733 5.31558 7.19182C5.2981 6.9663 5.22761 6.7481 5.10986 6.55497C4.32652 5.26914 5.79819 3.79664 7.08486 4.57997C7.91819 5.08664 8.99819 4.6383 9.22819 3.69247Z" stroke="#94A3B8" stroke-width="2" stroke-linecap="round" stroke-linejoin="round"/>
<path d="M8.12402 10.095C8.12402 10.758 8.38742 11.3939 8.85626 11.8627C9.3251 12.3316 9.96098 12.595 10.624 12.595C11.2871 12.595 11.9229 12.3316 12.3918 11.8627C12.8606 11.3939 13.124 10.758 13.124 10.095C13.124 9.43193 12.8606 8.79604 12.3918 8.3272C11.9229 7.85836 11.2871 7.59497 10.624 7.59497C9.96098 7.59497 9.3251 7.85836 8.85626 8.3272C8.38742 8.79604 8.12402 9.43193 8.12402 10.095Z" stroke="#94A3B8" stroke-width="2" stroke-linecap="round" stroke-linejoin="round"/>
</svg>
