<svg width="15" height="16" viewBox="0 0 15 16" fill="none" xmlns="http://www.w3.org/2000/svg">
<g id="cog--work-loading-cog-gear-settings-machine">
<path id="Vector" d="M5.73016 3.25L6.16016 2.14C6.23268 1.95206 6.36027 1.79041 6.52621 1.67621C6.69216 1.56201 6.88872 1.50059 7.09016 1.5H7.91016C8.1116 1.50059 8.30817 1.56201 8.47411 1.67621C8.64006 1.79041 8.76764 1.95206 8.84016 2.14L9.27016 3.25L10.7301 4.09L11.9101 3.91C12.1066 3.88333 12.3066 3.91567 12.4847 4.00292C12.6627 4.09017 12.8108 4.22838 12.9101 4.4L13.3101 5.1C13.4126 5.27435 13.4599 5.47568 13.4456 5.67742C13.4313 5.87916 13.3562 6.07183 13.2301 6.23L12.5001 7.16V8.84L13.2501 9.77C13.3762 9.92817 13.4513 10.1208 13.4656 10.3226C13.4799 10.5243 13.4326 10.7256 13.3301 10.9L12.9301 11.6C12.8308 11.7716 12.6827 11.9098 12.5047 11.9971C12.3266 12.0843 12.1266 12.1167 11.9301 12.09L10.7501 11.91L9.29016 12.75L8.86016 13.86C8.78764 14.0479 8.66006 14.2096 8.49411 14.3238C8.32817 14.438 8.1316 14.4994 7.93016 14.5H7.09016C6.88872 14.4994 6.69216 14.438 6.52621 14.3238C6.36027 14.2096 6.23268 14.0479 6.16016 13.86L5.73016 12.75L4.27016 11.91L3.09016 12.09C2.89368 12.1167 2.6937 12.0843 2.51564 11.9971C2.33759 11.9098 2.18949 11.7716 2.09016 11.6L1.69016 10.9C1.58766 10.7256 1.54044 10.5243 1.55472 10.3226C1.569 10.1208 1.64412 9.92817 1.77016 9.77L2.50016 8.84V7.16L1.75016 6.23C1.62412 6.07183 1.549 5.87916 1.53472 5.67742C1.52044 5.47568 1.56766 5.27435 1.67016 5.1L2.07016 4.4C2.16949 4.22838 2.31759 4.09017 2.49564 4.00292C2.6737 3.91567 2.87368 3.88333 3.07016 3.91L4.25016 4.09L5.73016 3.25ZM5.50016 8C5.50016 8.39556 5.61746 8.78224 5.83722 9.11114C6.05699 9.44004 6.36934 9.69638 6.73479 9.84776C7.10025 9.99913 7.50238 10.0387 7.89034 9.96157C8.2783 9.8844 8.63467 9.69392 8.91438 9.41421C9.19408 9.13451 9.38456 8.77814 9.46173 8.39018C9.5389 8.00222 9.4993 7.60009 9.34792 7.23463C9.19655 6.86918 8.9402 6.55682 8.6113 6.33706C8.2824 6.1173 7.89572 6 7.50016 6C6.96973 6 6.46102 6.21071 6.08595 6.58579C5.71088 6.96086 5.50016 7.46957 5.50016 8Z" stroke="white" stroke-width="2" stroke-linecap="round" stroke-linejoin="round"/>
</g>
</svg>
