<svg width="21" height="21" viewBox="0 0 21 21" fill="none" xmlns="http://www.w3.org/2000/svg">
<path d="M8.12402 17.6565V12.6565C8.12402 12.2145 8.29962 11.7905 8.61218 11.478C8.92474 11.1654 9.34866 10.9898 9.79069 10.9898H11.4574C11.8994 10.9898 12.3233 11.1654 12.6359 11.478C12.9484 11.7905 13.124 12.2145 13.124 12.6565V17.6565M4.79069 10.1565H3.12402L10.624 2.65649L18.124 10.1565H16.4574V15.9898C16.4574 16.4319 16.2818 16.8558 15.9692 17.1683C15.6566 17.4809 15.2327 17.6565 14.7907 17.6565H6.45736C6.01533 17.6565 5.59141 17.4809 5.27885 17.1683C4.96628 16.8558 4.79069 16.4319 4.79069 15.9898V10.1565Z" stroke="#94A3B8" stroke-width="2" stroke-linecap="round" stroke-linejoin="round"/>
</svg>
