<svg width="16" height="14" viewBox="0 0 16 14" fill="none" xmlns="http://www.w3.org/2000/svg">
<g id="user-multiple-group--close-geometric-human-multiple-person-up-user">
<path id="Vector" d="M6 6C7.38071 6 8.5 4.88071 8.5 3.5C8.5 2.11929 7.38071 1 6 1C4.61929 1 3.5 2.11929 3.5 3.5C3.5 4.88071 4.61929 6 6 6Z" stroke="#3B82F6" stroke-width="2" stroke-linecap="round" stroke-linejoin="round"/>
<path id="Vector_2" d="M1.5 13.0001H6H10.5V12.458C10.492 11.6958 10.291 10.948 9.91573 10.2846C9.54043 9.62112 9.0031 9.06362 8.35393 8.66413C7.70475 8.26463 6.96491 8.0362 6.20352 8.00015C6.13564 7.99694 6.06778 7.99526 6 7.99512C5.93222 7.99526 5.86436 7.99694 5.79648 8.00015C5.03509 8.0362 4.29525 8.26463 3.64607 8.66413C2.9969 9.06362 2.45957 9.62112 2.08427 10.2846C1.70898 10.948 1.50796 11.6958 1.5 12.458V13.0001Z" stroke="#3B82F6" stroke-width="2" stroke-linecap="round" stroke-linejoin="round"/>
<path id="Vector_3" d="M10 6C11.3807 6 12.5 4.88071 12.5 3.5C12.5 2.11929 11.3807 1 10 1" stroke="#3B82F6" stroke-width="2" stroke-linecap="round" stroke-linejoin="round"/>
<path id="Vector_4" d="M12.5 13.0002H14.5V12.458C14.492 11.6958 14.291 10.948 13.9157 10.2846C13.5404 9.62112 13.0031 9.06364 12.3539 8.66415C11.9343 8.4059 11.4767 8.21914 11 8.10962" stroke="#3B82F6" stroke-width="2" stroke-linecap="round" stroke-linejoin="round"/>
</g>
</svg>
