<svg width="15" height="16" viewBox="0 0 15 16" fill="none" xmlns="http://www.w3.org/2000/svg">
<g id="help-question-1--circle-faq-frame-help-info-mark-more-query-question">
<path id="Vector" d="M7.5 14.5C11.0899 14.5 14 11.5899 14 8C14 4.41015 11.0899 1.5 7.5 1.5C3.91015 1.5 1 4.41015 1 8C1 11.5899 3.91015 14.5 7.5 14.5Z" stroke="white" stroke-width="2" stroke-linecap="round" stroke-linejoin="round"/>
<path id="Vector_2" d="M5.75 6.24963C5.75 5.90351 5.85273 5.56517 6.0452 5.27738C6.23766 4.9896 6.51123 4.7653 6.83129 4.63284C7.15135 4.50039 7.50354 4.46574 7.84331 4.53326C8.18309 4.60078 8.49519 4.76745 8.74016 5.0122C8.98512 5.25694 9.15194 5.56876 9.21953 5.90822C9.28711 6.24769 9.25243 6.59955 9.11985 6.91932C8.98728 7.23909 8.76277 7.5124 8.47472 7.70469C8.18668 7.89698 7.84802 7.99962 7.50159 7.99962V9.16628" stroke="white" stroke-width="2" stroke-linecap="round" stroke-linejoin="round"/>
<g id="Group 2567">
<path id="Vector_3" d="M7.5 11.4585C7.36193 11.4585 7.25 11.3466 7.25 11.2085C7.25 11.0704 7.36193 10.9585 7.5 10.9585" stroke="white" stroke-width="2" stroke-linecap="round" stroke-linejoin="round"/>
<path id="Vector_4" d="M7.5 11.4585C7.63807 11.4585 7.75 11.3466 7.75 11.2085C7.75 11.0704 7.63807 10.9585 7.5 10.9585" stroke="white" stroke-width="2" stroke-linecap="round" stroke-linejoin="round"/>
</g>
</g>
</svg>
