<svg width="15" height="16" viewBox="0 0 15 16" fill="none" xmlns="http://www.w3.org/2000/svg">
<path d="M7.5 14.5C11.0899 14.5 14 11.5899 14 8C14 4.41015 11.0899 1.5 7.5 1.5C3.91015 1.5 1 4.41015 1 8C1 11.5899 3.91015 14.5 7.5 14.5Z" stroke="#64748B" stroke-width="2" stroke-linecap="round" stroke-linejoin="round"/>
<path d="M5.75 6.24951C5.75 5.90339 5.85273 5.56505 6.0452 5.27726C6.23766 4.98948 6.51123 4.76518 6.83129 4.63272C7.15135 4.50027 7.50354 4.46562 7.84331 4.53314C8.18309 4.60066 8.49519 4.76733 8.74016 5.01208C8.98512 5.25682 9.15194 5.56864 9.21953 5.9081C9.28711 6.24757 9.25243 6.59943 9.11985 6.9192C8.98728 7.23897 8.76277 7.51228 8.47472 7.70457C8.18668 7.89686 7.84802 7.9995 7.50159 7.9995V9.16616" stroke="#64748B" stroke-width="2" stroke-linecap="round" stroke-linejoin="round"/>
<path d="M7.5 11.4585C7.36193 11.4585 7.25 11.3466 7.25 11.2085C7.25 11.0704 7.36193 10.9585 7.5 10.9585" stroke="#64748B" stroke-width="2" stroke-linecap="round" stroke-linejoin="round"/>
<path d="M7.5 11.4585C7.63807 11.4585 7.75 11.3466 7.75 11.2085C7.75 11.0704 7.63807 10.9585 7.5 10.9585" stroke="#64748B" stroke-width="2" stroke-linecap="round" stroke-linejoin="round"/>
</svg>
