<svg width="12" height="12" viewBox="0 0 12 12" fill="none" xmlns="http://www.w3.org/2000/svg">
<path d="M11.124 5.95384C11.1248 5.84707 11.1032 5.74131 11.0608 5.64331C11.0185 5.54531 10.9562 5.45721 10.8779 5.38461L6.12403 1L1.37019 5.38461C1.29191 5.45721 1.22959 5.54531 1.18721 5.64331C1.14483 5.74131 1.12332 5.84707 1.12404 5.95384V10.2308C1.12404 10.4348 1.20508 10.6304 1.34934 10.7747C1.4936 10.9189 1.68926 11 1.89327 11H10.3548C10.5588 11 10.7545 10.9189 10.8987 10.7747C11.043 10.6304 11.124 10.4348 11.124 10.2308V5.95384Z" stroke="#3B82F6" stroke-linecap="round" stroke-linejoin="round"/>
<path d="M6.12402 11V7.9231" stroke="#3B82F6" stroke-linecap="round" stroke-linejoin="round"/>
</svg>
