<svg width="15" height="15" viewBox="0 0 15 15" fill="none" xmlns="http://www.w3.org/2000/svg">
<g id="Group 2606">
<path id="Vector" d="M10.2929 13.7071C10.1054 13.8946 9.851 14 9.58579 14H5.41421C5.149 14 4.89464 13.8946 4.70711 13.7071L1.29289 10.2929C1.10536 10.1054 1 9.851 1 9.58579V5.41421C1 5.149 1.10536 4.89464 1.29289 4.70711L4.70711 1.29289C4.89464 1.10536 5.149 1 5.41421 1H9.58579C9.851 1 10.1054 1.10536 10.2929 1.29289L13.7071 4.70711C13.8946 4.89464 14 5.149 14 5.41421V9.58579C14 9.851 13.8946 10.1054 13.7071 10.2929L10.2929 13.7071Z" stroke="#EF4444" stroke-linecap="round" stroke-linejoin="round"/>
<path id="Vector_2" d="M7.5 4.5V7.75" stroke="#EF4444" stroke-linecap="round" stroke-linejoin="round"/>
<g id="Group 2605">
<path id="Ellipse 1111" d="M7.5 10.5C7.36193 10.5 7.25 10.3881 7.25 10.25C7.25 10.1119 7.36193 10 7.5 10" stroke="#EF4444" stroke-linecap="round" stroke-linejoin="round"/>
<path id="Ellipse 1112" d="M7.5 10.5C7.63807 10.5 7.75 10.3881 7.75 10.25C7.75 10.1119 7.63807 10 7.5 10" stroke="#EF4444" stroke-linecap="round" stroke-linejoin="round"/>
</g>
</g>
</svg>
