<svg width="15" height="14" viewBox="0 0 15 14" fill="none" xmlns="http://www.w3.org/2000/svg">
<path d="M5.65519 11.837L1.5 13L2.66345 8.84645L10.2721 1.27771C10.358 1.1898 10.4608 1.11995 10.5741 1.07226C10.6875 1.02457 10.8093 1 10.9323 1C11.0553 1 11.1771 1.02457 11.2905 1.07226C11.4038 1.11995 11.5065 1.1898 11.5925 1.27771L13.2269 2.92068C13.3134 3.00648 13.3821 3.10858 13.429 3.22105C13.4759 3.33353 13.5 3.45417 13.5 3.57602C13.5 3.69787 13.4759 3.81852 13.429 3.931C13.3821 4.04347 13.3134 4.14556 13.2269 4.23136L5.65519 11.837Z" stroke="#3B82F6" stroke-width="2" stroke-linecap="round" stroke-linejoin="round"/>
</svg>
