<svg width="15" height="16" viewBox="0 0 15 16" fill="none" xmlns="http://www.w3.org/2000/svg">
<path d="M14 7.94C14.001 7.8012 13.973 7.66372 13.9179 7.53632C13.8628 7.40892 13.7818 7.29438 13.68 7.2L7.50002 1.5L1.32002 7.2C1.21825 7.29438 1.13724 7.40892 1.08214 7.53632C1.02705 7.66372 0.999084 7.8012 1.00002 7.94V13.5C1.00002 13.7652 1.10538 14.0196 1.29292 14.2071C1.48045 14.3946 1.73481 14.5 2.00002 14.5H13C13.2652 14.5 13.5196 14.3946 13.7071 14.2071C13.8947 14.0196 14 13.7652 14 13.5V7.94Z" stroke="white" stroke-width="2" stroke-linecap="round" stroke-linejoin="round"/>
<path d="M7.5 14.5V10.5" stroke="white" stroke-width="2" stroke-linecap="round" stroke-linejoin="round"/>
</svg>
