<svg width="21" height="20" viewBox="0 0 21 20" fill="none" xmlns="http://www.w3.org/2000/svg">
<path d="M12.2907 6.66659V4.99992C12.2907 4.55789 12.1151 4.13397 11.8025 3.82141C11.49 3.50885 11.0661 3.33325 10.624 3.33325H4.79069C4.34866 3.33325 3.92474 3.50885 3.61218 3.82141C3.29962 4.13397 3.12402 4.55789 3.12402 4.99992V14.9999C3.12402 15.4419 3.29962 15.8659 3.61218 16.1784C3.92474 16.491 4.34866 16.6666 4.79069 16.6666H10.624C11.0661 16.6666 11.49 16.491 11.8025 16.1784C12.1151 15.8659 12.2907 15.4419 12.2907 14.9999V13.3333M6.45736 9.99992H18.124M18.124 9.99992L15.624 7.49992M18.124 9.99992L15.624 12.4999" stroke="#64748B" stroke-width="2" stroke-linecap="round" stroke-linejoin="round"/>
</svg>
