<svg width="21" height="21" viewBox="0 0 21 21" fill="none" xmlns="http://www.w3.org/2000/svg">
<path d="M16.8741 11.2589L10.6241 17.4489L4.37411 11.2589C3.96187 10.8578 3.63715 10.3756 3.4204 9.84278C3.20366 9.30997 3.09958 8.73804 3.11473 8.16303C3.12987 7.58801 3.26391 7.02236 3.50841 6.5017C3.7529 5.98103 4.10256 5.51663 4.53535 5.13773C4.96814 4.75884 5.4747 4.47366 6.02312 4.30015C6.57154 4.12665 7.14995 4.06857 7.72192 4.12959C8.29389 4.1906 8.84703 4.36938 9.34651 4.65467C9.84599 4.93996 10.281 5.32559 10.6241 5.78725C10.9687 5.32894 11.4042 4.94669 11.9034 4.66442C12.4025 4.38216 12.9545 4.20596 13.5249 4.14685C14.0953 4.08774 14.6717 4.147 15.2181 4.32091C15.7645 4.49482 16.2691 4.77965 16.7004 5.15755C17.1317 5.53546 17.4803 5.99832 17.7245 6.51716C17.9686 7.036 18.1031 7.59965 18.1194 8.17284C18.1357 8.74603 18.0335 9.31641 17.8192 9.84829C17.605 10.3802 17.2832 10.8621 16.8741 11.2639" stroke="#94A3B8" stroke-width="2" stroke-linecap="round" stroke-linejoin="round"/>
</svg>
