<svg width="22" height="23" viewBox="0 0 22 23" fill="none" xmlns="http://www.w3.org/2000/svg">
<rect y="0.5" width="22" height="22" rx="11" fill="#3B82F6"/>
<path d="M9.46266 15.5308L6 16.5L6.96954 13.0387L13.3101 6.73143C13.3817 6.65817 13.4673 6.59995 13.5618 6.56021C13.6562 6.52047 13.7577 6.5 13.8602 6.5C13.9627 6.5 14.0642 6.52047 14.1587 6.56021C14.2531 6.59995 14.3388 6.65817 14.4104 6.73143L15.7724 8.10057C15.8445 8.17207 15.9017 8.25715 15.9408 8.35087C15.9799 8.44461 16 8.54515 16 8.64669C16 8.74822 15.9799 8.84876 15.9408 8.9425C15.9017 9.03623 15.8445 9.1213 15.7724 9.1928L9.46266 15.5308Z" stroke="white" stroke-linecap="round" stroke-linejoin="round"/>
</svg>
